<?xml version="1.0" encoding="utf-8" standalone="no"?>
<!DOCTYPE svg PUBLIC "-//W3C//DTD SVG 1.1//EN"
  "http://www.w3.org/Graphics/SVG/1.1/DTD/svg11.dtd">
<svg xmlns:xlink="http://www.w3.org/1999/xlink" width="414.72pt" height="414.72pt" viewBox="0 0 414.72 414.72" xmlns="http://www.w3.org/2000/svg" version="1.1">
 <metadata>
  <rdf:RDF xmlns:dc="http://purl.org/dc/elements/1.1/" xmlns:cc="http://creativecommons.org/ns#" xmlns:rdf="http://www.w3.org/1999/02/22-rdf-syntax-ns#">
   <cc:Work>
    <dc:type rdf:resource="http://purl.org/dc/dcmitype/StillImage"/>
    <dc:date>2025-09-25T19:20:49.378116</dc:date>
    <dc:format>image/svg+xml</dc:format>
    <dc:creator>
     <cc:Agent>
      <dc:title>Matplotlib v3.10.6, https://matplotlib.org/</dc:title>
     </cc:Agent>
    </dc:creator>
   </cc:Work>
  </rdf:RDF>
 </metadata>
 <defs>
  <style type="text/css">*{stroke-linejoin: round; stroke-linecap: butt}</style>
 </defs>
 <g id="figure_1">
  <g id="patch_1">
   <path d="M 0 414.72 
L 414.72 414.72 
L 414.72 0 
L 0 0 
L 0 414.72 
z
" style="fill: none"/>
  </g>
  <g id="axes_1">
   <g id="patch_2">
    <path d="M 207.36 351 
C 234.569838 351 260.668895 340.189417 279.909156 320.949156 
C 299.149417 301.708895 309.96 275.609838 309.96 248.4 
C 309.96 221.190162 299.149417 195.091105 279.909156 175.850844 
C 260.668895 156.610583 234.569838 145.8 207.36 145.8 
C 180.150162 145.8 154.051105 156.610583 134.810844 175.850844 
C 115.570583 195.091105 104.76 221.190162 104.76 248.4 
C 104.76 275.609838 115.570583 301.708895 134.810844 320.949156 
C 154.051105 340.189417 180.150162 351 207.36 351 
L 207.36 351 
z
" clip-path="url(#pf90b29cd7d)" style="fill: none; stroke: #d0d0d0; stroke-width: 15; stroke-linejoin: miter"/>
   </g>
   <g id="line2d_1">
    <path d="M 207.36 145.8 
L 211.843647 145.898015 
L 216.318727 146.191873 
L 220.776691 146.681013 
L 225.20902 147.364499 
L 229.607247 148.241026 
L 233.962967 149.30892 
L 238.267859 150.56614 
L 242.513698 152.010283 
L 246.692371 153.638591 
L 250.795895 155.447953 
L 254.816429 157.434911 
L 258.746291 159.59567 
L 262.577974 161.9261 
L 266.304155 164.42175 
L 269.917717 167.07785 
L 273.411754 169.889327 
L 276.779591 172.850808 
L 280.014793 175.956635 
L 283.111179 179.200875 
L 286.062833 182.577328 
L 288.864115 186.079544 
L 291.509673 189.700831 
L 293.994453 193.43427 
L 296.313707 197.272727 
L 298.463004 201.20887 
L 300.438237 205.235178 
L 302.235632 209.343957 
L 303.851755 213.527358 
L 305.283519 217.777387 
L 306.528188 222.085925 
L 307.583383 226.444739 
L 308.447089 230.845501 
L 309.117655 235.279803 
L 309.593801 239.739173 
L 309.874616 244.215091 
L 309.959564 248.699005 
L 309.848483 253.182347 
L 309.541585 257.656552 
L 309.039456 262.113071 
L 308.343055 266.54339 
L 307.453714 270.939043 
L 306.373131 275.291633 
L 305.103371 279.592843 
L 303.64686 283.834455 
L 302.006381 288.008365 
L 300.185068 292.106598 
L 298.186401 296.121324 
L 296.014199 300.044873 
L 293.672612 303.869748 
L 291.166114 307.588641 
L 288.499494 311.194446 
L 285.677847 314.680275 
L 282.706563 318.039467 
L 279.591321 321.265604 
L 276.338071 324.352522 
L 272.953031 327.294324 
L 269.442666 330.085388 
L 265.813685 332.720381 
L 262.07302 335.194271 
L 258.22782 337.502328 
L 254.28543 339.640145 
L 250.253383 341.603635 
L 246.139384 343.389049 
L 241.951291 344.992974 
L 237.697107 346.412346 
L 233.38496 347.644453 
L 229.02309 348.686941 
L 224.619829 349.537818 
L 220.183591 350.195459 
L 215.722852 350.658607 
L 211.246135 350.926377 
L 206.761993 350.998257 
L 202.278994 350.874111 
L 197.805702 350.554175 
L 193.350665 350.03906 
L 188.922395 349.329751 
L 184.529352 348.427604 
L 180.17993 347.334341 
L 175.882439 346.052051 
L 171.64509 344.583185 
L 167.475978 342.930549 
L 163.38307 341.097301 
L 159.374185 339.086943 
L 155.456984 336.903316 
L 151.638949 334.550592 
L 147.927377 332.033267 
L 144.329358 329.356149 
L 140.851767 326.524355 
L 137.501248 323.543295 
L 134.284203 320.418664 
L 131.206779 317.156432 
L 128.274855 313.762832 
L 125.494033 310.244349 
L 122.869626 306.607704 
L 120.406649 302.859846 
L 118.109807 299.007935 
L 115.983489 295.059332 
L 114.031757 291.02158 
L 112.258341 286.902395 
L 110.666628 282.709645 
L 109.25966 278.451343 
L 108.040125 274.135624 
L 107.010353 269.770734 
L 106.172311 265.365012 
L 105.527602 260.926877 
L 105.077456 256.464807 
L 104.822733 251.987329 
L 104.76 248.4 
L 104.76 248.4 
" clip-path="url(#pf90b29cd7d)" style="fill: none; stroke: #a0a0a0; stroke-width: 15; stroke-linecap: round"/>
   </g>
   <g id="text_1">
    <!-- 75% -->
    <g transform="translate(169.0625 257.23) scale(0.32 -0.32)">
     <defs>
      <path id="DejaVuSans-Bold-37" d="M 428 4666 
L 3944 4666 
L 3944 3988 
L 2125 0 
L 953 0 
L 2675 3781 
L 428 3781 
L 428 4666 
z
" transform="scale(0.015625)"/>
      <path id="DejaVuSans-Bold-35" d="M 678 4666 
L 3669 4666 
L 3669 3781 
L 1638 3781 
L 1638 3059 
Q 1775 3097 1914 3117 
Q 2053 3138 2203 3138 
Q 3056 3138 3531 2711 
Q 4006 2284 4006 1522 
Q 4006 766 3489 337 
Q 2972 -91 2053 -91 
Q 1656 -91 1267 -14 
Q 878 63 494 219 
L 494 1166 
Q 875 947 1217 837 
Q 1559 728 1863 728 
Q 2300 728 2551 942 
Q 2803 1156 2803 1522 
Q 2803 1891 2551 2103 
Q 2300 2316 1863 2316 
Q 1603 2316 1309 2248 
Q 1016 2181 678 2041 
L 678 4666 
z
" transform="scale(0.015625)"/>
      <path id="DejaVuSans-Bold-25" d="M 4959 1925 
Q 4738 1925 4616 1733 
Q 4494 1541 4494 1184 
Q 4494 825 4614 633 
Q 4734 441 4959 441 
Q 5184 441 5303 633 
Q 5422 825 5422 1184 
Q 5422 1541 5301 1733 
Q 5181 1925 4959 1925 
z
M 4959 2450 
Q 5541 2450 5875 2112 
Q 6209 1775 6209 1184 
Q 6209 594 5875 251 
Q 5541 -91 4959 -91 
Q 4378 -91 4042 251 
Q 3706 594 3706 1184 
Q 3706 1772 4042 2111 
Q 4378 2450 4959 2450 
z
M 2094 -91 
L 1403 -91 
L 4319 4750 
L 5013 4750 
L 2094 -91 
z
M 1453 4750 
Q 2034 4750 2367 4411 
Q 2700 4072 2700 3481 
Q 2700 2891 2367 2550 
Q 2034 2209 1453 2209 
Q 872 2209 539 2550 
Q 206 2891 206 3481 
Q 206 4072 539 4411 
Q 872 4750 1453 4750 
z
M 1453 4225 
Q 1228 4225 1106 4031 
Q 984 3838 984 3481 
Q 984 3122 1106 2926 
Q 1228 2731 1453 2731 
Q 1678 2731 1798 2926 
Q 1919 3122 1919 3481 
Q 1919 3838 1797 4031 
Q 1675 4225 1453 4225 
z
" transform="scale(0.015625)"/>
     </defs>
     <use xlink:href="#DejaVuSans-Bold-37"/>
     <use xlink:href="#DejaVuSans-Bold-35" transform="translate(69.580078 0)"/>
     <use xlink:href="#DejaVuSans-Bold-25" transform="translate(139.160156 0)"/>
    </g>
   </g>
   <g id="text_2">
    <!-- Demand Score -->
    <g transform="translate(133.8075 68.686875) scale(0.18 -0.18)">
     <defs>
      <path id="DejaVuSans-Bold-44" d="M 1791 3756 
L 1791 909 
L 2222 909 
Q 2959 909 3348 1275 
Q 3738 1641 3738 2338 
Q 3738 3031 3350 3393 
Q 2963 3756 2222 3756 
L 1791 3756 
z
M 588 4666 
L 1856 4666 
Q 2919 4666 3439 4514 
Q 3959 4363 4331 4000 
Q 4659 3684 4818 3271 
Q 4978 2859 4978 2338 
Q 4978 1809 4818 1395 
Q 4659 981 4331 666 
Q 3956 303 3431 151 
Q 2906 0 1856 0 
L 588 0 
L 588 4666 
z
" transform="scale(0.015625)"/>
      <path id="DejaVuSans-Bold-65" d="M 4031 1759 
L 4031 1441 
L 1416 1441 
Q 1456 1047 1700 850 
Q 1944 653 2381 653 
Q 2734 653 3104 758 
Q 3475 863 3866 1075 
L 3866 213 
Q 3469 63 3072 -14 
Q 2675 -91 2278 -91 
Q 1328 -91 801 392 
Q 275 875 275 1747 
Q 275 2603 792 3093 
Q 1309 3584 2216 3584 
Q 3041 3584 3536 3087 
Q 4031 2591 4031 1759 
z
M 2881 2131 
Q 2881 2450 2695 2645 
Q 2509 2841 2209 2841 
Q 1884 2841 1681 2658 
Q 1478 2475 1428 2131 
L 2881 2131 
z
" transform="scale(0.015625)"/>
      <path id="DejaVuSans-Bold-6d" d="M 3781 2919 
Q 3994 3244 4286 3414 
Q 4578 3584 4928 3584 
Q 5531 3584 5847 3212 
Q 6163 2841 6163 2131 
L 6163 0 
L 5038 0 
L 5038 1825 
Q 5041 1866 5042 1909 
Q 5044 1953 5044 2034 
Q 5044 2406 4934 2573 
Q 4825 2741 4581 2741 
Q 4263 2741 4089 2478 
Q 3916 2216 3909 1719 
L 3909 0 
L 2784 0 
L 2784 1825 
Q 2784 2406 2684 2573 
Q 2584 2741 2328 2741 
Q 2006 2741 1831 2477 
Q 1656 2213 1656 1722 
L 1656 0 
L 531 0 
L 531 3500 
L 1656 3500 
L 1656 2988 
Q 1863 3284 2130 3434 
Q 2397 3584 2719 3584 
Q 3081 3584 3359 3409 
Q 3638 3234 3781 2919 
z
" transform="scale(0.015625)"/>
      <path id="DejaVuSans-Bold-61" d="M 2106 1575 
Q 1756 1575 1579 1456 
Q 1403 1338 1403 1106 
Q 1403 894 1545 773 
Q 1688 653 1941 653 
Q 2256 653 2472 879 
Q 2688 1106 2688 1447 
L 2688 1575 
L 2106 1575 
z
M 3816 1997 
L 3816 0 
L 2688 0 
L 2688 519 
Q 2463 200 2181 54 
Q 1900 -91 1497 -91 
Q 953 -91 614 226 
Q 275 544 275 1050 
Q 275 1666 698 1953 
Q 1122 2241 2028 2241 
L 2688 2241 
L 2688 2328 
Q 2688 2594 2478 2717 
Q 2269 2841 1825 2841 
Q 1466 2841 1156 2769 
Q 847 2697 581 2553 
L 581 3406 
Q 941 3494 1303 3539 
Q 1666 3584 2028 3584 
Q 2975 3584 3395 3211 
Q 3816 2838 3816 1997 
z
" transform="scale(0.015625)"/>
      <path id="DejaVuSans-Bold-6e" d="M 4056 2131 
L 4056 0 
L 2931 0 
L 2931 347 
L 2931 1631 
Q 2931 2084 2911 2256 
Q 2891 2428 2841 2509 
Q 2775 2619 2662 2680 
Q 2550 2741 2406 2741 
Q 2056 2741 1856 2470 
Q 1656 2200 1656 1722 
L 1656 0 
L 538 0 
L 538 3500 
L 1656 3500 
L 1656 2988 
Q 1909 3294 2193 3439 
Q 2478 3584 2822 3584 
Q 3428 3584 3742 3212 
Q 4056 2841 4056 2131 
z
" transform="scale(0.015625)"/>
      <path id="DejaVuSans-Bold-64" d="M 2919 2988 
L 2919 4863 
L 4044 4863 
L 4044 0 
L 2919 0 
L 2919 506 
Q 2688 197 2409 53 
Q 2131 -91 1766 -91 
Q 1119 -91 703 423 
Q 288 938 288 1747 
Q 288 2556 703 3070 
Q 1119 3584 1766 3584 
Q 2128 3584 2408 3439 
Q 2688 3294 2919 2988 
z
M 2181 722 
Q 2541 722 2730 984 
Q 2919 1247 2919 1747 
Q 2919 2247 2730 2509 
Q 2541 2772 2181 2772 
Q 1825 2772 1636 2509 
Q 1447 2247 1447 1747 
Q 1447 1247 1636 984 
Q 1825 722 2181 722 
z
" transform="scale(0.015625)"/>
      <path id="DejaVuSans-Bold-20" transform="scale(0.015625)"/>
      <path id="DejaVuSans-Bold-53" d="M 3834 4519 
L 3834 3531 
Q 3450 3703 3084 3790 
Q 2719 3878 2394 3878 
Q 1963 3878 1756 3759 
Q 1550 3641 1550 3391 
Q 1550 3203 1689 3098 
Q 1828 2994 2194 2919 
L 2706 2816 
Q 3484 2659 3812 2340 
Q 4141 2022 4141 1434 
Q 4141 663 3683 286 
Q 3225 -91 2284 -91 
Q 1841 -91 1394 -6 
Q 947 78 500 244 
L 500 1259 
Q 947 1022 1364 901 
Q 1781 781 2169 781 
Q 2563 781 2772 912 
Q 2981 1044 2981 1288 
Q 2981 1506 2839 1625 
Q 2697 1744 2272 1838 
L 1806 1941 
Q 1106 2091 782 2419 
Q 459 2747 459 3303 
Q 459 4000 909 4375 
Q 1359 4750 2203 4750 
Q 2588 4750 2994 4692 
Q 3400 4634 3834 4519 
z
" transform="scale(0.015625)"/>
      <path id="DejaVuSans-Bold-63" d="M 3366 3391 
L 3366 2478 
Q 3138 2634 2908 2709 
Q 2678 2784 2431 2784 
Q 1963 2784 1702 2511 
Q 1441 2238 1441 1747 
Q 1441 1256 1702 982 
Q 1963 709 2431 709 
Q 2694 709 2930 787 
Q 3166 866 3366 1019 
L 3366 103 
Q 3103 6 2833 -42 
Q 2563 -91 2291 -91 
Q 1344 -91 809 395 
Q 275 881 275 1747 
Q 275 2613 809 3098 
Q 1344 3584 2291 3584 
Q 2566 3584 2833 3536 
Q 3100 3488 3366 3391 
z
" transform="scale(0.015625)"/>
      <path id="DejaVuSans-Bold-6f" d="M 2203 2784 
Q 1831 2784 1636 2517 
Q 1441 2250 1441 1747 
Q 1441 1244 1636 976 
Q 1831 709 2203 709 
Q 2569 709 2762 976 
Q 2956 1244 2956 1747 
Q 2956 2250 2762 2517 
Q 2569 2784 2203 2784 
z
M 2203 3584 
Q 3106 3584 3614 3096 
Q 4122 2609 4122 1747 
Q 4122 884 3614 396 
Q 3106 -91 2203 -91 
Q 1297 -91 786 396 
Q 275 884 275 1747 
Q 275 2609 786 3096 
Q 1297 3584 2203 3584 
z
" transform="scale(0.015625)"/>
      <path id="DejaVuSans-Bold-72" d="M 3138 2547 
Q 2991 2616 2845 2648 
Q 2700 2681 2553 2681 
Q 2122 2681 1889 2404 
Q 1656 2128 1656 1613 
L 1656 0 
L 538 0 
L 538 3500 
L 1656 3500 
L 1656 2925 
Q 1872 3269 2151 3426 
Q 2431 3584 2822 3584 
Q 2878 3584 2943 3579 
Q 3009 3575 3134 3559 
L 3138 2547 
z
" transform="scale(0.015625)"/>
     </defs>
     <use xlink:href="#DejaVuSans-Bold-44"/>
     <use xlink:href="#DejaVuSans-Bold-65" transform="translate(83.007812 0)"/>
     <use xlink:href="#DejaVuSans-Bold-6d" transform="translate(150.830078 0)"/>
     <use xlink:href="#DejaVuSans-Bold-61" transform="translate(255.029297 0)"/>
     <use xlink:href="#DejaVuSans-Bold-6e" transform="translate(322.509766 0)"/>
     <use xlink:href="#DejaVuSans-Bold-64" transform="translate(393.701172 0)"/>
     <use xlink:href="#DejaVuSans-Bold-20" transform="translate(465.283203 0)"/>
     <use xlink:href="#DejaVuSans-Bold-53" transform="translate(500.097656 0)"/>
     <use xlink:href="#DejaVuSans-Bold-63" transform="translate(572.119141 0)"/>
     <use xlink:href="#DejaVuSans-Bold-6f" transform="translate(631.396484 0)"/>
     <use xlink:href="#DejaVuSans-Bold-72" transform="translate(700.097656 0)"/>
     <use xlink:href="#DejaVuSans-Bold-65" transform="translate(749.414062 0)"/>
    </g>
   </g>
  </g>
  <g id="patch_3">
   <path d="M 0 414.72 
L 414.72 414.72 
L 414.72 -0 
L 0 -0 
L 0 414.72 
z
" style="fill: none; stroke: #d8a8d8; stroke-width: 2; stroke-linejoin: miter"/>
  </g>
 </g>
 <defs>
  <clipPath id="pf90b29cd7d">
   <rect x="2.16" y="2.16" width="410.4" height="410.4"/>
  </clipPath>
 </defs>
</svg>
